<svg width="79" height="24" viewBox="0 0 79 24" fill="none" xmlns="http://www.w3.org/2000/svg">
<path d="M43.7155 5.17676V18H41.1843V8.09473L38.1432 9.06152V7.06641L43.4431 5.17676H43.7155ZM48.11 16.7783C48.11 16.4033 48.239 16.0898 48.4968 15.8379C48.7604 15.5859 49.1091 15.46 49.5427 15.46C49.9763 15.46 50.322 15.5859 50.5798 15.8379C50.8434 16.0898 50.9753 16.4033 50.9753 16.7783C50.9753 17.1533 50.8434 17.4668 50.5798 17.7188C50.322 17.9707 49.9763 18.0967 49.5427 18.0967C49.1091 18.0967 48.7604 17.9707 48.4968 17.7188C48.239 17.4668 48.11 17.1533 48.11 16.7783ZM55.4841 12.1729L53.4626 11.6895L54.1921 5.20312H61.3815V7.25098H56.2751L55.9587 10.0898C56.1286 9.99023 56.3864 9.88477 56.7321 9.77344C57.0778 9.65625 57.4645 9.59766 57.8923 9.59766C58.5134 9.59766 59.0641 9.69434 59.5446 9.8877C60.0251 10.0811 60.4323 10.3623 60.7663 10.7314C61.1061 11.1006 61.364 11.5518 61.5397 12.085C61.7155 12.6182 61.8034 13.2217 61.8034 13.8955C61.8034 14.4639 61.7155 15.0059 61.5397 15.5215C61.364 16.0312 61.0974 16.4883 60.7399 16.8926C60.3825 17.291 59.9343 17.6045 59.3952 17.833C58.8561 18.0615 58.2175 18.1758 57.4792 18.1758C56.9284 18.1758 56.3952 18.0938 55.8796 17.9297C55.3698 17.7656 54.9099 17.5225 54.4997 17.2002C54.0954 16.8779 53.7702 16.4883 53.5241 16.0312C53.2839 15.5684 53.1579 15.041 53.1462 14.4492H55.6599C55.695 14.8125 55.7888 15.126 55.9411 15.3896C56.0993 15.6475 56.3073 15.8467 56.5651 15.9873C56.8229 16.1279 57.1247 16.1982 57.4704 16.1982C57.7927 16.1982 58.0681 16.1367 58.2966 16.0137C58.5251 15.8906 58.7097 15.7207 58.8503 15.5039C58.9909 15.2812 59.0934 15.0234 59.1579 14.7305C59.2282 14.4316 59.2634 14.1094 59.2634 13.7637C59.2634 13.418 59.2224 13.1045 59.1403 12.8232C59.0583 12.542 58.9323 12.2988 58.7624 12.0938C58.5925 11.8887 58.3757 11.7305 58.112 11.6191C57.8542 11.5078 57.5524 11.4521 57.2067 11.4521C56.738 11.4521 56.3747 11.5254 56.1169 11.6719C55.8649 11.8184 55.654 11.9854 55.4841 12.1729ZM64.9059 5.20312H67.1384L70.4255 14.5986L73.7126 5.20312H75.945L71.322 18H69.529L64.9059 5.20312ZM63.7018 5.20312H65.9255L66.3298 14.3613V18H63.7018V5.20312ZM74.9255 5.20312H77.1579V18H74.5212V14.3613L74.9255 5.20312Z" fill="#515151"/>
<path d="M23.8717 11.745C22.9896 9.46324 21.4582 7.48996 19.4668 6.06906C17.4754 4.64817 15.1113 3.84193 12.6667 3.75C10.2221 3.84193 7.85798 4.64817 5.86659 6.06906C3.8752 7.48996 2.34381 9.46324 1.46169 11.745C1.40211 11.9098 1.40211 12.0902 1.46169 12.255C2.34381 14.5368 3.8752 16.51 5.86659 17.9309C7.85798 19.3518 10.2221 20.1581 12.6667 20.25C15.1113 20.1581 17.4754 19.3518 19.4668 17.9309C21.4582 16.51 22.9896 14.5368 23.8717 12.255C23.9313 12.0902 23.9313 11.9098 23.8717 11.745ZM12.6667 18.75C8.69169 18.75 4.49169 15.8025 2.96919 12C4.49169 8.1975 8.69169 5.25 12.6667 5.25C16.6417 5.25 20.8417 8.1975 22.3642 12C20.8417 15.8025 16.6417 18.75 12.6667 18.75Z" fill="#515151"/>
<path d="M12.6667 7.5C11.7767 7.5 10.9066 7.76392 10.1666 8.25839C9.4266 8.75285 8.84982 9.45566 8.50923 10.2779C8.16864 11.1002 8.07952 12.005 8.25315 12.8779C8.42679 13.7508 8.85537 14.5526 9.48471 15.182C10.114 15.8113 10.9159 16.2399 11.7888 16.4135C12.6617 16.5872 13.5665 16.4981 14.3888 16.1575C15.211 15.8169 15.9138 15.2401 16.4083 14.5001C16.9028 13.76 17.1667 12.89 17.1667 12C17.1667 10.8065 16.6926 9.66193 15.8487 8.81802C15.0048 7.97411 13.8602 7.5 12.6667 7.5ZM12.6667 15C12.0733 15 11.4933 14.8241 11 14.4944C10.5066 14.1648 10.1221 13.6962 9.89505 13.148C9.66799 12.5999 9.60858 11.9967 9.72433 11.4147C9.84009 10.8328 10.1258 10.2982 10.5454 9.87868C10.9649 9.45912 11.4995 9.1734 12.0814 9.05764C12.6634 8.94189 13.2666 9.0013 13.8147 9.22836C14.3629 9.45542 14.8315 9.83994 15.1611 10.3333C15.4907 10.8266 15.6667 11.4067 15.6667 12C15.6667 12.7956 15.3506 13.5587 14.788 14.1213C14.2254 14.6839 13.4623 15 12.6667 15Z" fill="#515151"/>
</svg>
